<?xml version="1.0" encoding="UTF-8"?>
<svg width="93px" height="95px" viewBox="0 0 93 95" version="1.1" xmlns="http://www.w3.org/2000/svg" xmlns:xlink="http://www.w3.org/1999/xlink">
    <!-- Generator: Sketch 59.1 (86144) - https://sketch.com -->
    <title>Slice</title>
    <desc>Created with Sketch.</desc>
    <g id="Page-1" stroke="none" stroke-width="1" fill="none" fill-rule="evenodd">
        <g id="Group-5" transform="translate(4.000000, 4.000000)">
            <path d="M42.7187,85.4377 L42.7187,85.4377 C19.1257,85.4377 -0.0003,66.3117 -0.0003,42.7187 C-0.0003,19.1257 19.1257,-0.0003 42.7187,-0.0003 C66.3117,-0.0003 85.4377,19.1257 85.4377,42.7187 C85.4377,66.3117 66.3117,85.4377 42.7187,85.4377 Z" id="Stroke-1" stroke="#FFFFFF" stroke-width="4"></path>
            <path d="M50.1098,44.6364 L43.3648,44.6364 L43.3648,66.3414 L33.3658,66.3414 L33.3658,44.6364 L28.6108,44.6364 L28.6108,36.1394 L33.3658,36.1394 L33.3658,30.6404 C33.3658,26.7094 35.2338,20.5514 43.4538,20.5514 L50.8598,20.5834 L50.8598,28.8304 L45.4858,28.8304 C44.6048,28.8304 43.3648,29.2714 43.3648,31.1464 L43.3648,36.1474 L50.9828,36.1474 L50.1098,44.6364 Z" id="Fill-3" fill="#FFFFFF"></path>
        </g>
    </g>
</svg>