<?xml version="1.0" encoding="UTF-8"?>
<svg width="97px" height="93px" viewBox="0 0 97 93" version="1.1" xmlns="http://www.w3.org/2000/svg" xmlns:xlink="http://www.w3.org/1999/xlink">
    <!-- Generator: Sketch 59.1 (86144) - https://sketch.com -->
    <title>Group 9</title>
    <desc>Created with Sketch.</desc>
    <g id="Page-1" stroke="none" stroke-width="1" fill="none" fill-rule="evenodd">
        <g id="Group-9">
            <path d="M49.719,89.438 L49.719,89.438 C26.126,89.438 7,70.312 7,46.719 C7,23.125 26.126,4 49.719,4 C73.312,4 92.438,23.125 92.438,46.719 C92.438,70.312 73.312,89.438 49.719,89.438 Z" id="Stroke-1" stroke="#FFFFFF" stroke-width="4"></path>
            <path d="M69.0852,57.0952 C69.0852,62.0962 65.0312,66.1502 60.0302,66.1502 L39.4062,66.1502 C34.4052,66.1502 30.3522,62.0962 30.3522,57.0952 L30.3522,36.4712 C30.3522,31.4702 34.4052,27.4162 39.4062,27.4162 L60.0302,27.4162 C65.0312,27.4162 69.0852,31.4702 69.0852,36.4712 L69.0852,57.0952 Z M60.0832,23.6832 L39.3542,23.6832 C32.3202,23.6832 26.6182,29.3852 26.6182,36.4182 L26.6182,57.1482 C26.6182,64.1822 32.3202,69.8832 39.3542,69.8832 L60.0832,69.8832 C67.1162,69.8832 72.8182,64.1822 72.8182,57.1482 L72.8182,36.4182 C72.8182,29.3852 67.1162,23.6832 60.0832,23.6832 L60.0832,23.6832 Z" id="Fill-3" fill="#FFFFFF"></path>
            <path d="M49.718,54.7241 C45.332,54.7241 41.778,51.1691 41.778,46.7841 C41.778,42.3981 45.332,38.8421 49.718,38.8421 C54.104,38.8421 57.659,42.3981 57.659,46.7841 C57.659,51.1691 54.104,54.7241 49.718,54.7241 M49.718,34.6081 C42.994,34.6081 37.543,40.0591 37.543,46.7841 C37.543,53.5071 42.994,58.9581 49.718,58.9581 C56.443,58.9581 61.894,53.5071 61.894,46.7841 C61.894,40.0591 56.443,34.6081 49.718,34.6081" id="Fill-5" fill="#FFFFFF"></path>
            <path d="M65.0383,34.2036 C65.0383,35.7116 63.8153,36.9336 62.3083,36.9336 C60.7993,36.9336 59.5763,35.7116 59.5763,34.2036 C59.5763,32.6946 60.7993,31.4726 62.3083,31.4726 C63.8153,31.4726 65.0383,32.6946 65.0383,34.2036" id="Fill-7" fill="#FFFFFF"></path>
        </g>
    </g>
</svg>