<?xml version="1.0" encoding="UTF-8"?>
<svg width="93px" height="93px" viewBox="0 0 93 93" version="1.1" xmlns="http://www.w3.org/2000/svg" xmlns:xlink="http://www.w3.org/1999/xlink">
    <!-- Generator: Sketch 59.1 (86144) - https://sketch.com -->
    <title>Slice</title>
    <desc>Created with Sketch.</desc>
    <g id="Page-1" stroke="none" stroke-width="1" fill="none" fill-rule="evenodd">
        <g id="Group-5" transform="translate(4.000000, 3.000000)">
            <path d="M42.7187,86.4374 L42.7187,86.4374 C19.1257,86.4374 -0.0003,67.3114 -0.0003,43.7184 C-0.0003,20.1254 19.1257,0.9994 42.7187,0.9994 C66.3117,0.9994 85.4377,20.1254 85.4377,43.7184 C85.4377,67.3114 66.3117,86.4374 42.7187,86.4374 Z" id="Stroke-1" stroke="#FFFFFF" stroke-width="4"></path>
            <path d="M66.6982,31.5029 C65.0732,32.2239 63.3252,32.7109 61.4932,32.9289 C63.3642,31.8079 64.8002,30.0329 65.4782,27.9169 C63.7272,28.9549 61.7872,29.7089 59.7242,30.1149 C58.0712,28.3549 55.7162,27.2539 53.1082,27.2539 C48.1042,27.2539 44.0462,31.3119 44.0462,36.3149 C44.0462,37.0249 44.1272,37.7169 44.2822,38.3809 C36.7512,38.0029 30.0742,34.3959 25.6052,28.9119 C24.8242,30.2499 24.3772,31.8079 24.3772,33.4679 C24.3772,36.6109 25.9782,39.3859 28.4082,41.0109 C26.9242,40.9629 25.5262,40.5569 24.3042,39.8759 C24.3032,39.9139 24.3032,39.9529 24.3032,39.9909 C24.3032,44.3819 27.4282,48.0429 31.5732,48.8749 C30.8132,49.0829 30.0122,49.1939 29.1862,49.1939 C28.6012,49.1939 28.0342,49.1379 27.4812,49.0319 C28.6342,52.6319 31.9802,55.2509 35.9462,55.3239 C32.8432,57.7559 28.9372,59.2039 24.6912,59.2039 C23.9612,59.2039 23.2382,59.1609 22.5312,59.0769 C26.5392,61.6489 31.3032,63.1489 36.4202,63.1489 C53.0882,63.1489 62.2032,49.3419 62.2032,37.3649 C62.2032,36.9729 62.1942,36.5819 62.1762,36.1929 C63.9482,34.9159 65.4832,33.3199 66.6982,31.5029" id="Fill-3" fill="#FFFFFF"></path>
        </g>
    </g>
</svg>